<svg xmlns="http://www.w3.org/2000/svg" viewBox="0 0 175.75 267.56"><defs><style>.cls-1{fill:#f4bf9b;}.cls-2{fill:#e99280;}.cls-3,.cls-5{fill:#8bb5ff;}.cls-4{fill:#2e80ff;}.cls-5{stroke:#73a3ff;stroke-miterlimit:10;}.cls-6{fill:#011c29;}.cls-7{fill:#eca68c;}.cls-8{fill:#4a5356;}</style></defs><title>caiyingwen</title><g id="图层_3" data-name="图层 3"><path class="cls-1" d="M145.85,94.25a15.34,15.34,0,0,0-2.19.4,16.34,16.34,0,0,0-2.09.65l7,9.3a15.64,15.64,0,0,1,4.78-1.17c1.63-.13,2.64-.21,3.48.31,2.6,1.59,1.93,7.91,1.85,8.66-1,9.31-10.37,15.11-13.13,16.69L146,133a18,18,0,0,0,4.4,0c8.77-1,15.34-11.7,16.55-21.6.73-6,0-16.25-4.89-18.78C157.94,90.51,150.53,93.67,145.85,94.25Z"/><path class="cls-2" d="M142,99.2l3.5,29.89a17.22,17.22,0,0,0,12.17-7.31,21.54,21.54,0,0,0,3.18-11.16c.13-2.82.27-5.65-1-7.91C157.47,98.28,150.18,96.87,142,99.2Z"/><path class="cls-1" d="M27.54,92.92a13.85,13.85,0,0,1,1.86.18,15.75,15.75,0,0,1,1.8.44l-5.12,9.95a10.88,10.88,0,0,0-4.08-.68c-1.38,0-2.23,0-2.89.65-2.06,1.84-1,8.06-.88,8.8,1.56,9.16,9.85,14,12.28,15.3l-.07,3.94a13,13,0,0,1-3.69.46c-7.41-.14-13.74-10.11-15.52-19.84C10.15,106.2,10,96,13.86,92.94,17.14,90.41,23.58,92.82,27.54,92.92Z"/><path class="cls-2" d="M31.12,97.47l-.61,30.09a13.41,13.41,0,0,1-10.74-6.06c-2.71-4-3.27-8.6-3.53-10.79-.33-2.79-.67-5.59.2-8C18.13,98.09,24.12,96,31.12,97.47Z"/><polygon class="cls-3" points="60.56 197.23 -1.52 217.93 -1.52 268.7 175.75 269.84 175.75 217.93 123.82 197.23 60.56 197.23"/><path class="cls-1" d="M122.67,232.13c-6.43-.46-15.82,0-23.61,6-6.54,5.05-9.51,12.13-11.58,11.31-3.1-1.24,3.4-17.15-2.17-22.63-2.83-2.77-9.48-3.59-26.41,5.28V171h63.77Z"/><path class="cls-2" d="M58.17,193.87A42.85,42.85,0,0,0,76.63,205c23.49,6.66,43.43-11.6,45.32-13.38q.12-7.26.26-14.53H57.81Z"/><path class="cls-4" d="M99.06,260a41.21,41.21,0,0,0-.73-24.88,37.57,37.57,0,0,0-6.51-11.31,13.27,13.27,0,0,1,5.07.75c3.72,1.35,4.26,3.53,5.78,3.77,5.91.93,11.49-29.62,21-30.16,2.77-.16,5.86,3.13,7.23,4.52a19.48,19.48,0,0,1,4.34,6.79,75.51,75.51,0,0,1-8.68,23.38A73.32,73.32,0,0,1,99.06,260Z"/><path class="cls-3" d="M123.21,189.9q-15.69,17-31.39,33.94a21.06,21.06,0,0,1,8.68,6.78c5.8,7.67,5,17,4.87,18.86a179.57,179.57,0,0,0,14.5-16.59,185.72,185.72,0,0,0,15.36-23.38,37.08,37.08,0,0,0-4.67-11.31A33.31,33.31,0,0,0,123.21,189.9Z"/><path class="cls-4" d="M49.13,203.48a6.21,6.21,0,0,1,4.12-1.43c2.63.13,5,2.19,6,5.2a1,1,0,0,1,.28-.35c1.46-1.09,5.06,3.63,11.3,7.89,4.52,3.08,9.29,5.15,14.47,9.8a4.21,4.21,0,0,1,.72.76c2.42,3.47-2.92,9.6-5.79,18.85a52.38,52.38,0,0,0-2.17,11.31A39,39,0,0,1,54.2,239.67C43.18,223.65,48.51,205.48,49.13,203.48Z"/><path class="cls-5" d="M58.54,189.9,86,225.35a16.91,16.91,0,0,0-8.68,3.77c-6.73,5.64-6.55,14.67-6.51,15.83a51.08,51.08,0,0,1-21.71-17.34A53.75,53.75,0,0,1,40.45,208a36.57,36.57,0,0,1,8-11.31A35.07,35.07,0,0,1,58.54,189.9Z"/><path class="cls-1" d="M151.59,112.23c-.5,8.87-2.17,18.85-2.17,18.85-1.53,9.18-2.42,14.45-5.06,21.12-2.51,6.3-5.86,14-13,20.36-2,1.82-5.7,4-13,8.29-4.92,2.9-7.38,4.35-9.41,5.28-16.16,7.42-32.83,2.14-34.73,1.51A71.8,71.8,0,0,1,64,183.12a114.24,114.24,0,0,1-15.19-9.05c-11.51-8.69-15.92-26.23-17.37-33.18A139.46,139.46,0,0,1,26.42,110C25.37,88.86,24.9,70,37.27,52.66c1-1.44,18.52-25.17,47.82-26.63,18.58-.93,33.19,7.53,39.33,11.09,5.84,3.39,10.78,6.24,15.59,11.77C156.4,67.68,152.48,96.45,151.59,112.23Z"/><path class="cls-6" d="M68.43,110.77c-.57,1.75-3.33,2.47-5.34,2.08-3.09-.59-5.62-4-4.8-5.94.71-1.67,4-2.12,6.28-1.24S69,108.85,68.43,110.77Z"/><rect class="cls-7" x="86.76" y="111.48" width="7.96" height="22.58" rx="3.69" ry="3.69"/><path class="cls-6" d="M123.72,107.76c.55,1.92-1.47,4.2-3.52,4.94-2.94,1.07-6.85-.67-7.12-2.82-.24-1.87,2.28-3.91,4.66-4.39C119.94,105.05,123.14,105.72,123.72,107.76Z"/><path class="cls-6" d="M65.62,92.1c-3.49-1.21-5.24-1.82-7.55-1.52-5,.66-7.84,4.91-10.29,3.62a2.75,2.75,0,0,1-1.05-1,10.72,10.72,0,0,1,3.15-6.29c5.23-4.72,14.55-1.27,17.55-.16a30,30,0,0,1,9.7,5.93,4.06,4.06,0,0,1-1.85,2.74C73.18,96.42,70.88,93.94,65.62,92.1Z"/><path class="cls-6" d="M116.23,92.38c3.45-1.41,5.18-2.12,7.55-1.91,5.06.46,8.23,4.71,10.64,3.28a2.66,2.66,0,0,0,1-1.13,11.33,11.33,0,0,0-3.57-6.35c-5.58-4.63-14.81-.66-17.79.62a29.82,29.82,0,0,0-9.45,6.54,4.29,4.29,0,0,0,2.05,2.75C108.84,97.17,111,94.51,116.23,92.38Z"/><path class="cls-8" d="M44.71,44.66c-4.24,7.37-7.9,14.25-11.05,20.5C29.07,74.25,26.74,79.69,26,87a45.09,45.09,0,0,0-.18,5.84l-6.5-6.49a29,29,0,0,1,.7-11.78c.64-2.22.89-1.94,2.05-5.44,2.19-6.59,1.61-8.57,3.52-11,1.34-1.69,2.16-1.37,3.58-3.56A17.23,17.23,0,0,0,31.14,50C32,47.54,35,45,44.71,44.66Z"/><path class="cls-8" d="M137.86,46.84c3.62,8.32,6.29,15.4,8.19,20.82,3.56,10.17,3.78,12.6,3.81,14.18a44.86,44.86,0,0,0,.81,8.37,42,42,0,0,0,1.19,4.63l4.36-4.54a34.48,34.48,0,0,0,.31-11.78c-.35-2.27-.58-2-1.28-5.63-1.3-6.8-.67-8.7-2.06-11.29-1-1.82-1.68-1.6-2.68-3.93a17.85,17.85,0,0,1-1.24-4.81C149,51.17,146.74,49,137.86,46.84Z"/><path class="cls-2" d="M106,143.56q-6.67.09-13.5.1-8.82,0-17.42-.1v3.62a170.34,170.34,0,0,0,18.47.68c4.39-.08,8.55-.32,12.45-.68Z"/></g></svg>