<svg xmlns="http://www.w3.org/2000/svg" viewBox="0 0 196.49 264.38"><defs><style>.cls-1{fill:#4c4a4a;}.cls-2{fill:#e99280;}.cls-3{fill:#c5cad8;}.cls-4{fill:#302e2e;}.cls-5{fill:#f9d2b9;}.cls-6{fill:#1b2426;}.cls-7{fill:#eca68c;}</style></defs><title>caiyingwen</title><g id="图层_3" data-name="图层 3"><path class="cls-1" d="M66.61,168.15,0,204.39v71.07H196.49V206.58L131,168.15Z"/><path class="cls-2" d="M131,207.17a50.63,50.63,0,0,1-66.9,0V150H131Z"/><path class="cls-3" d="M64.1,205.08c2.48,2.26,15.4,13.55,34.9,12.69a49.46,49.46,0,0,0,32-14v3a429.11,429.11,0,0,1-5.92,69.38H70a244.82,244.82,0,0,1-6-69.38C64,206.21,64.07,205.64,64.1,205.08Z"/><polyline class="cls-4" points="63.41 174.21 31.72 210.14 47.38 221.81 27.87 244.8 32.05 274.06 27.87 274.06 23.69 242.01 42.5 225.29 28.57 208.57 63.41 170.24"/><polyline class="cls-4" points="131.69 175.6 161.71 211.53 146.88 223.2 165.36 246.19 161.4 275.46 165.36 275.46 169.32 243.41 151.5 226.68 164.7 209.96 131.69 171.64"/><path class="cls-2" d="M43.44,121.88,41.58,96.74c-1.57-.37-5.64-1.11-8.91,1.1-5.59,3.78-6,14.3-.79,19.9C36,122.18,42.23,121.94,43.44,121.88Z"/><path class="cls-5" d="M40.88,127.71a14.55,14.55,0,0,0,3.38-.41v-4.86a14.59,14.59,0,0,1-7.7-2.91c-7.13-5.62-7.88-18.78-3-21.86,3.4-2.17,9,1,10.72,1.9.19-2.73.39-5.47.59-8.2-1.2-1-9.53-7.52-15.59-4.74-7.26,3.33-6.39,17.86-3,26.43C30.45,123.87,39.63,127.71,40.88,127.71Z"/><path class="cls-2" d="M148.06,122.13V96.46c4.93-3.3,7.83-2.5,8.72-2.17,6,2.25,8.67,15.61,2.64,22.76C155.64,121.55,149.74,122,148.06,122.13Z"/><path class="cls-5" d="M149.7,127.5a14.3,14.3,0,0,1-3.42-.42v-5a14.66,14.66,0,0,0,7.79-3c7.22-5.73,8-19.12,3.06-22.27-3.45-2.2-9.15,1-10.85,1.94l-.6-8.35c2.36-2,8.15-6.26,13.19-4.56,7.54,2.55,9,17,5.67,26.64C160.76,123.33,151,127.5,149.7,127.5Z"/><path class="cls-5" d="M151.13,105.73c-3.74,28.94-5.76,43.56-13.17,51.27-5.12,5.34-12.72,8.59-19.51,11.85-9,4.31-13.89,6.61-20.75,6.62-6.67,0-11.55-2.15-20.8-6.24-1.31-.58-10.71-4.74-16.28-8.74-15-10.82-17.84-31.84-20.86-54.76C37.06,85.32,35.37,70.78,43.9,56A53.71,53.71,0,0,1,55.74,42c4-3.49,17.33-14.75,37.63-15.33,17.86-.52,30.45,7.55,34.84,10.45A55.48,55.48,0,0,1,146.32,56c.42.74.85,1.54,1.28,2.48C154.69,74.17,151.7,101.4,151.13,105.73Z"/><circle class="cls-6" cx="70.72" cy="100.22" r="3.14"/><circle class="cls-6" cx="120.2" cy="99.52" r="3.14"/><path class="cls-6" d="M56.83,92.81c.56.69,3.5-2.72,8.67-2.7a27.7,27.7,0,0,1,7.83,1.63A38.85,38.85,0,0,0,78,93c2.49.5,4.33.65,4.94-.26s-.17-2.25-.38-2.63C80.9,87.19,76.72,86.59,71.74,86c-4.1-.53-6.15-.79-8.32,0C58.91,87.6,56.25,92.09,56.83,92.81Z"/><path class="cls-6" d="M133.59,92.81c-.54.56-2.54-2.25-6.77-2.7-3.24-.34-6.64.83-9,1.64A34.39,34.39,0,0,1,113.41,93c-2.37.5-4.13.65-4.71-.26s.18-2.3.36-2.63c.82-1.49,2.46-2.66,9.44-4.17,4.55-1,6.83-1.48,8.32-1C131.66,86.36,134.31,92.07,133.59,92.81Z"/><path class="cls-6" d="M118.5,41.31C108.88,56.51,98.71,62.84,91,65.77c-11.25,4.28-22.61,3.38-34.9,13a48.62,48.62,0,0,0-8.32,8.32,124.13,124.13,0,0,0,9.36,70.72,36.85,36.85,0,0,1-22.14,7c-.6,0-15.28-.57-25-11-12.68-13.6-8.51-35-5-53C7.19,89.55,11.66,68,29.06,46.51,35.6,38.44,64.13,3.26,99.78,8A54.54,54.54,0,0,1,121,15.77c3.38-1.56,8.48-3.22,14-2,6.89,1.53,12,7,24,31,8.19,16.36,12.79,25.56,18,41,6.94,20.58,10.41,30.86,8,41-.62,2.62-5.76,22.77-24,29a35.9,35.9,0,0,1-22,0c13.34-29.65,11.54-46.23,7-56C143.31,94,137.53,86,133.06,71.47a118.38,118.38,0,0,0-5.2-14.56A74.23,74.23,0,0,0,118.5,41.31Z"/><rect class="cls-2" x="84.18" y="133.99" width="27.04" height="5" rx="2.5" ry="2.5"/><rect class="cls-7" x="90.88" y="102.67" width="11.44" height="21.28" rx="5.5" ry="5.5"/><path d="M140.66,94.72A1.34,1.34,0,0,1,142,96.05v12.1a1.34,1.34,0,0,1-1.34,1.33H103.75a1.34,1.34,0,0,1-1.33-1.33V96.05a1.34,1.34,0,0,1,1.33-1.33h36.91m0-1H103.75a2.33,2.33,0,0,0-2.33,2.33v12.1a2.33,2.33,0,0,0,2.33,2.33h36.91a2.33,2.33,0,0,0,2.34-2.33V96.05a2.33,2.33,0,0,0-2.34-2.33Z"/><path d="M85.26,94.72A1.74,1.74,0,0,1,87,96.46v11.28a1.74,1.74,0,0,1-1.74,1.74H49.16a1.74,1.74,0,0,1-1.74-1.74V96.46a1.74,1.74,0,0,1,1.74-1.74h36.1m0-1H49.16a2.74,2.74,0,0,0-2.74,2.74v11.28a2.74,2.74,0,0,0,2.74,2.74h36.1A2.73,2.73,0,0,0,88,107.74V96.46a2.73,2.73,0,0,0-2.74-2.74Z"/><rect x="88.07" y="101.1" width="13.51" height="1.51"/></g></svg>