<svg xmlns="http://www.w3.org/2000/svg" viewBox="0 0 196.49 275.69"><defs><style>.cls-1{fill:#f4bf9b;}.cls-2{fill:#e99280;}.cls-3{fill:#0a020f;}.cls-4{fill:#60605f;}.cls-5{fill:#011c29;}.cls-6{fill:#3a3a37;}.cls-7{fill:#eca68c;}.cls-8{fill:#fff;}.cls-9{fill:#e5861f;}</style></defs><title>songchuyu</title><g id="图层_3" data-name="图层 3"><path class="cls-1" d="M153.12,82.09a16.71,16.71,0,0,0-2.17.4,19.9,19.9,0,0,0-2.07.64q3.45,4.62,6.92,9.22a15.33,15.33,0,0,1,4.73-1.15c1.62-.13,2.62-.21,3.45.3,2.59,1.58,1.92,7.84,1.84,8.59-1,9.23-10.28,15-13,16.55l.46,3.88a18.15,18.15,0,0,0,4.36,0c8.69-1,15.21-11.6,16.41-21.42.72-6,0-16.11-4.85-18.62C165.1,78.39,157.76,81.53,153.12,82.09Z"/><path class="cls-2" d="M149.33,87l3.47,29.64a17,17,0,0,0,12.06-7.25A21.23,21.23,0,0,0,168,98.33c.13-2.8.27-5.6-1-7.84C164.64,86.09,157.41,84.69,149.33,87Z"/><path class="cls-3" d="M66.61,171.32,0,207.55v71.08H196.49V209.75L131,171.32Z"/><rect class="cls-2" x="64.1" y="153.2" width="66.89" height="57.14"/><path class="cls-1" d="M41.63,84.17a18.9,18.9,0,0,1,2.2.44,18.31,18.31,0,0,1,2.1.66l-7.11,8.38A17.08,17.08,0,0,0,34,92.43c-1.64-.17-2.66-.27-3.51.18-2.64,1.39-2,7.25-1.94,8,.93,8.62,10.34,14.26,13.11,15.8L41.18,120a20.69,20.69,0,0,1-4.44-.11c-8.83-1.21-15.38-11.27-16.52-20.44-.69-5.59.15-15,5.08-17.21C29.47,80.36,36.91,83.5,41.63,84.17Z"/><path class="cls-2" d="M45.44,88.86l-3.77,27.5c-1.41-.19-8.11-1.28-12.21-7.11a18.92,18.92,0,0,1-3.12-10.4c-.11-2.61-.23-5.23,1-7.28C29.88,87.55,37.24,86.46,45.44,88.86Z"/><path class="cls-1" d="M157.47,101a181.57,181.57,0,0,1-3.86,18.16,162.14,162.14,0,0,1-6,18c-4,9.95-6,14.92-9.65,19.58a48,48,0,0,1-22.35,15.42c-14.15,4.77-26.23,1.6-32,0-4.75-1.32-15.66-4.48-25.08-14-8.45-8.56-11.26-17.75-15.92-33-2.27-7.42-4.76-15.58-5.68-26.25-1.23-14.33-3-35.79,10.45-53C63.17,25.74,90.25,25.15,97.2,25c7.45-.17,34-.75,49.12,17.42C162.7,62.08,159,90.25,157.47,101Z"/><path class="cls-4" d="M155.61,25.11c-14.52-20.39-43.5-20.14-59-20-4.6,0-46.55.4-52,19-1.47,5,.1,10.11,2,14a29.37,29.37,0,0,0,7,2,30.39,30.39,0,0,0,16-2,46,46,0,0,1,16-10c20.46-7.41,46.91.36,52,13.54a108.73,108.73,0,0,1,4.16,16.64,26.84,26.84,0,0,0,3.6,10.29c.3.49.52.82.61,1,1.75,2.63,3.6,8,4.62,19.57l9-5.36a67.41,67.41,0,0,0,5-24.64C164.66,54.25,164.81,38,155.61,25.11Z"/><path class="cls-4" d="M47.61,38.11c-14.33,1.12-19.27,5.23-21,9-2.28,5,.85,9.69,3,22a104.32,104.32,0,0,1,1.53,20l11.14,1c-1.51-14.63,1.38-24.56,4.33-30.94,3.64-7.88,9.63-15.26,7-19C52.35,38.32,49.61,38.07,47.61,38.11Z"/><ellipse class="cls-5" cx="68.99" cy="96.42" rx="4.53" ry="4.18"/><path class="cls-6" d="M67.89,78.8a37.37,37.37,0,0,0-13.49,2,6.15,6.15,0,0,1,0-3.46c1-3,4.14-4,5-4.35,2.28-.77,4.34-.35,8.37.51a46.85,46.85,0,0,1,11.89,4.33c.46.24,5,3.17,4.54,4C83.76,82.88,76.9,79.16,67.89,78.8Z"/><rect class="cls-7" x="93.28" y="103.73" width="11.44" height="21.6" rx="3.81" ry="3.81"/><path class="cls-2" d="M114.57,137q-6.63.09-13.39.11-8.75,0-17.27-.11v3.6a172.61,172.61,0,0,0,18.31.67c4.35-.08,8.47-.32,12.35-.67Z"/><ellipse class="cls-5" cx="125.07" cy="96.07" rx="4.53" ry="4.18"/><path class="cls-7" d="M72.15,139.27l-1.93-1.12A37.29,37.29,0,0,1,84.5,113.41l1.94,1.12a38.34,38.34,0,0,0-14.29,24.74Z"/><path class="cls-8" d="M64.1,208.25l66.9,3.32q-3,33.87-5.92,67.75H70Q67.06,243.79,64.1,208.25Z"/><path class="cls-1" d="M71.07,186.65a45.68,45.68,0,0,0,25.78,6.27c16.84-1,27.41-11.31,30-13.93l-6.27,31.35-39.71,3Z"/><path class="cls-9" d="M107.3,243.79H92q-5.58-16.72-11.15-33.45h37.62Q112.89,227.07,107.3,243.79Z"/><path class="cls-9" d="M118.45,277.93H80.83Q86.4,260.86,92,243.79H107.3Q112.88,260.86,118.45,277.93Z"/><path class="cls-8" d="M64.18,172.62a80.81,80.81,0,0,0-.58,40.68,77.84,77.84,0,0,0,6.45,16.93,36.06,36.06,0,0,1,13-15.63,35.41,35.41,0,0,1,11.68-5Q88.94,202.37,82.92,195,73.52,183.55,64.18,172.62Z"/><path class="cls-8" d="M131.05,171.34c-5.92,8.54-12.64,17.43-20.26,26.46q-5.25,6.22-10.45,11.84a51.7,51.7,0,0,1,24.38,19.51,91.2,91.2,0,0,0,7.67-26.47A91.61,91.61,0,0,0,131.05,171.34Z"/><path class="cls-7" d="M121.21,140.06,123.3,139a35.5,35.5,0,0,0-13.23-25.32L108,114.74a36.44,36.44,0,0,1,13.23,25.32Z"/><path class="cls-6" d="M126,79a31.16,31.16,0,0,1,12.19,1.85,6.64,6.64,0,0,0-.19-3.44c-1-2.94-3.92-4-4.74-4.27-2.08-.75-3.91-.32-7.48.58a37.81,37.81,0,0,0-10.42,4.44c-.39.24-4.26,3.21-3.85,4C112,83.26,118,79.48,126,79Z"/></g></svg>